<?xml version="1.0" standalone="no"?>
<!DOCTYPE svg PUBLIC "-//W3C//DTD SVG 1.1//EN" "http://www.w3.org/Graphics/SVG/1.1/DTD/svg11.dtd" >
<svg xmlns="http://www.w3.org/2000/svg">
<metadata>
This is a custom SVG webfont generated by Font Squirrel.
Copyright   : C 2011 dot colon
Designer    : Sora Sagano
</metadata>
<defs>
<font id="PennaRegular" horiz-adv-x="268" >
<font-face units-per-em="1000" ascent="798" descent="-202" />
<missing-glyph horiz-adv-x="177" />
<glyph unicode=" "  horiz-adv-x="177" />
<glyph unicode="&#x09;" horiz-adv-x="177" />
<glyph unicode="&#xa0;" horiz-adv-x="177" />
<glyph unicode="!" horiz-adv-x="164" d="M88 130h-12l-3 596h18zM98 8q0 16 -16 16t-16 -16t16 -16t16 16z" />
<glyph unicode="&#x22;" horiz-adv-x="127" d="M94 460h-11l-4 166h19zM44 460h-11l-4 166h19z" />
<glyph unicode="#" horiz-adv-x="292" d="M252 153h-53l-22 -72h51v-11h-54l-27 -90l-11 3l26 87h-60l-27 -90l-11 3l26 87h-50v11h53l22 72h-51v11h54l26 83l11 -3l-25 -80h60l26 83l11 -3l-25 -80h50v-11zM165 81l22 72h-60l-22 -72h60z" />
<glyph unicode="$" horiz-adv-x="205" d="M167 65q0 -22 -17 -36.5t-40 -16.5v-42h-12v42q-33 2 -57 24l8 11q26 -22 53 -22q21 0 35 10t14 29q0 32 -50 47q-56 16 -56 59q0 23 15 37.5t39 16.5v40h12v-40q34 -1 52 -27l-10 -9q-20 23 -47 23q-20 0 -32.5 -10t-12.5 -28q0 -35 49 -49q57 -16 57 -59z" />
<glyph unicode="%" horiz-adv-x="342" d="M87 -1l158 243l10 -7l-158 -243zM240 114q24 0 41 -15.5t17 -45.5t-17 -45.5t-41 -15.5t-41 15.5t-17 45.5t17 45.5t41 15.5zM240 3q43 0 43 50t-43 50t-43 -50t43 -50zM102 242q24 0 41 -15.5t17 -45.5t-17 -45.5t-41 -15.5t-41 15.5t-17 45.5t17 45.5t41 15.5zM102 131 q43 0 43 50t-43 50t-43 -50t43 -50z" />
<glyph unicode="&#x26;" horiz-adv-x="484" d="M441 160l-83 -80l93 -80h-23l-81 68q-46 -42 -79.5 -59t-79.5 -17t-79 24t-33 66q0 37 22.5 67.5t80.5 67.5q-79 67 -79 125q0 49 30.5 75.5t75.5 26.5t75 -27.5t30 -68.5q0 -65 -107 -132l143 -127l84 80zM117 345q0 -59 77 -120q100 62 100 123q0 35 -25 59t-63 24 q-40 0 -64.5 -24t-24.5 -62zM194 5q71 0 143 73l-149 130q-55 -36 -75 -63t-20 -60q0 -39 29.5 -59.5t71.5 -20.5z" />
<glyph unicode="'" horiz-adv-x="77" d="M44 460h-11l-4 166h19z" />
<glyph unicode="(" horiz-adv-x="381" d="M110 342q0 -141 60 -257.5t156 -188.5l-7 -10q-104 79 -163.5 198.5t-59.5 257.5t59.5 257.5t163.5 198.5l7 -10q-96 -72 -156 -189t-60 -257z" />
<glyph unicode=")" horiz-adv-x="381" d="M271 342q0 140 -60 257t-156 189l7 10q104 -79 163.5 -198.5t59.5 -257.5t-59.5 -257.5t-163.5 -198.5l-7 10q96 72 156 188.5t60 257.5z" />
<glyph unicode="*" horiz-adv-x="318" d="M249 161l-79 -42l79 -42l-9 -15l-76 48l4 -90h-18l4 90l-76 -48l-9 15l79 42l-79 42l9 15l76 -48l-4 90h18l-4 -90l76 48z" />
<glyph unicode="+" horiz-adv-x="466" d="M367 153v-11h-128v-145h-12v145h-128v11h128v145h12v-145h128z" />
<glyph unicode="," horiz-adv-x="100" d="M28 -69l-13 4q14 45 21 86l22 -3q-13 -50 -30 -87z" />
<glyph unicode="-" horiz-adv-x="353" d="M254 142h-155v11h155v-11z" />
<glyph unicode="." horiz-adv-x="100" d="M66 8q0 -16 -16 -16t-16 16t16 16t16 -16z" />
<glyph unicode="/" horiz-adv-x="421" d="M-6 -107l422 903l11 -5l-422 -903z" />
<glyph unicode="0" d="M134 244q46 0 72 -34t26 -92t-26 -92t-72 -34t-72 34t-26 92t26 92t72 34zM134 5q39 0 60 32t21 81t-21 81t-60 32t-60 -32t-21 -81t21 -81t60 -32z" />
<glyph unicode="1" d="M174 238h12v-238h-16v218l-98 -59l-7 11z" />
<glyph unicode="2" d="M37 14l91 67q35 26 51.5 45.5t16.5 41.5q0 26 -18.5 43t-48.5 17q-41 0 -71 -37l-11 9q31 42 82 42q37 0 60 -20t23 -52q0 -26 -17.5 -48t-57.5 -52l-78 -56h160v-14h-182v14z" />
<glyph unicode="3" d="M100 -67q-41 0 -71 20l7 12q30 -19 65 -19q40 0 68.5 21.5t28.5 55.5q0 77 -115 76l-6 12l104 109h-133v14h153v-14l-104 -108q55 0 86 -23t31 -65t-34 -66.5t-80 -24.5z" />
<glyph unicode="4" d="M180 50h54v-14h-54v-95h-16v95h-133v12l128 190h21v-188zM164 50v170l-114 -170h114z" />
<glyph unicode="5" d="M64 81l-5 3v150h160v-14h-144v-121q22 8 46 8q47 0 72 -25.5t25 -62.5q0 -39 -30 -62.5t-72 -23.5q-39 0 -70 20l6 12q34 -19 65 -19q37 0 61 20t24 52q0 35 -21.5 55.5t-65.5 20.5q-25 0 -51 -13z" />
<glyph unicode="6" d="M139 -8q-45 0 -71.5 26.5t-26.5 69.5q0 60 47.5 120t109.5 94l8 -13q-40 -20 -79.5 -61.5t-60.5 -86.5q27 36 77 36q41 0 67.5 -26t26.5 -66q0 -39 -29.5 -66t-68.5 -27zM142 163q-34 0 -59 -19t-25 -56q0 -35 20.5 -58.5t60.5 -23.5q34 0 57.5 22t23.5 55q0 36 -21 58 t-57 22z" />
<glyph unicode="7" d="M65 -60l149 280h-174v14h193v-13l-155 -288z" />
<glyph unicode="8" d="M160 144q67 -14 67 -76q0 -36 -25.5 -56t-67.5 -20t-67.5 20.5t-25.5 55.5q0 28 18.5 48t48.5 26q-27 8 -43.5 29t-16.5 50q0 35 24.5 57.5t63.5 22.5q41 0 64.5 -23t23.5 -56q0 -61 -64 -78zM65 224q0 -32 19.5 -52t51.5 -23q33 3 52 21.5t19 49.5q0 29 -18 48.5 t-53 19.5q-32 0 -51.5 -17.5t-19.5 -46.5zM134 5q35 0 55.5 16.5t20.5 47.5q0 61 -77 68q-75 -12 -75 -68q0 -30 21.5 -47t54.5 -17z" />
<glyph unicode="9" d="M130 242q45 0 71.5 -26.5t26.5 -69.5q0 -60 -47.5 -120t-109.5 -94l-8 13q40 20 79.5 61.5t60.5 86.5q-27 -36 -77 -36q-41 0 -67.5 26t-26.5 66q0 39 29 66t69 27zM127 71q34 0 59 19t25 56q0 35 -20.5 58.5t-60.5 23.5q-34 0 -57.5 -22t-23.5 -55q0 -36 21 -58t57 -22z " />
<glyph unicode=":" horiz-adv-x="100" d="M66 8q0 -16 -16 -16t-16 16t16 16t16 -16zM66 226q0 -16 -16 -16t-16 16t16 16t16 -16z" />
<glyph unicode=";" horiz-adv-x="100" d="M28 -69l-13 4q14 45 21 86l22 -3q-13 -50 -30 -87zM67 226q0 -16 -16 -16t-16 16t16 16t16 -16z" />
<glyph unicode="&#x3c;" horiz-adv-x="524" d="M464 719l-375 -377l375 -377l-8 -9l-380 381v10l380 381z" />
<glyph unicode="=" horiz-adv-x="466" d="M367 192h-268v11h268v-11zM367 91h-268v11h268v-11z" />
<glyph unicode="&#x3e;" horiz-adv-x="524" d="M60 719l8 9l380 -381v-10l-380 -381l-8 9l375 377z" />
<glyph unicode="?" horiz-adv-x="465" d="M215 734q84 0 142.5 -50.5t58.5 -135.5q0 -56 -31.5 -107.5t-98.5 -118.5q-37 -37 -52 -70.5t-15 -84.5v-37h-16v29q0 61 16.5 97t51.5 71q70 71 99.5 117.5t29.5 95.5q0 81 -51 129.5t-138 48.5q-91 0 -173 -74l-10 12q83 78 187 78zM227 8q0 -16 -16 -16t-16 16t16 16 t16 -16z" />
<glyph unicode="@" horiz-adv-x="604" d="M296 -132q118 0 217 85l7 -8q-95 -88 -227 -88q-100 0 -174.5 66t-74.5 171q0 122 76.5 199t194.5 77q61 0 108.5 -21t74.5 -55t40.5 -71t13.5 -74q0 -72 -34 -107.5t-84 -35.5q-68 0 -69 61q-26 -60 -85 -60q-39 0 -63 23t-24 63q0 56 35.5 95t86.5 39q46 0 79 -11 l-14 -131q-7 -68 56 -68q44 0 73 34.5t29 95.5q0 35 -12 70t-37 68t-70 53.5t-104 20.5q-113 0 -185 -75t-72 -185q0 -100 71 -165.5t167 -65.5zM281 21q35 0 58.5 24.5t26.5 65.5l10 95q-30 8 -61 8q-44 0 -74.5 -35.5t-30.5 -82.5q0 -36 19.5 -55.5t51.5 -19.5z" />
<glyph unicode="A" horiz-adv-x="577" d="M530 0l-89 219h-306l-89 -219h-18l253 616h14l254 -616h-19zM142 234h293l-147 362z" />
<glyph unicode="B" horiz-adv-x="441" d="M265 233q58 0 90.5 -35.5t32.5 -81.5q0 -50 -34 -83t-83 -33h-206v616h146q84 0 141 -56t57 -143q0 -66 -42.5 -116.5t-101.5 -67.5zM81 601v-367h125q73 0 129.5 56.5t56.5 126.5q0 79 -52.5 131.5t-128.5 52.5h-130zM271 15q42 0 71.5 28.5t29.5 71.5q0 44 -30 74 t-82 30h-179v-204h190z" />
<glyph unicode="C" horiz-adv-x="671" d="M360 -8q-131 0 -223.5 92.5t-92.5 223.5t92.5 223.5t223.5 92.5q161 0 255 -125l-12 -11q-86 121 -243 121q-124 0 -211.5 -88.5t-87.5 -212.5t87.5 -212.5t211.5 -88.5q76 0 140 33t100 83l11 -10q-35 -48 -100.5 -84.5t-150.5 -36.5z" />
<glyph unicode="D" horiz-adv-x="594" d="M244 616q131 0 223.5 -89t92.5 -219t-92.5 -219t-223.5 -89h-179v616h179zM244 15q124 0 211.5 85t87.5 208t-87.5 208t-211.5 85h-163v-586h163z" />
<glyph unicode="E" horiz-adv-x="387" d="M341 597h-260v-363h230v-15h-230v-204h270v-15h-286v612h276v-15z" />
<glyph unicode="F" horiz-adv-x="343" d="M81 0h-16v612h276v-15h-260v-363h230v-15h-230v-219z" />
<glyph unicode="G" horiz-adv-x="655" d="M446 234h154v-121q-35 -48 -100.5 -84.5t-150.5 -36.5q-131 0 -223.5 92.5t-92.5 223.5t92.5 223.5t223.5 92.5q161 0 255 -125l-12 -11q-86 121 -243 121q-124 0 -211.5 -88.5t-87.5 -212.5t87.5 -212.5t211.5 -88.5q73 0 135 31t100 78v103h-138v15z" />
<glyph unicode="H" horiz-adv-x="576" d="M495 616h16v-616h-16v219h-414v-219h-16v616h16v-382h414v382z" />
<glyph unicode="I" horiz-adv-x="146" d="M81 0h-16v616h16v-616z" />
<glyph unicode="J" horiz-adv-x="336" d="M22 96q37 -89 120 -89q47 0 83 34t36 85v490h16v-487q0 -57 -40 -97t-97 -40q-46 0 -82 26.5t-49 70.5z" />
<glyph unicode="K" horiz-adv-x="439" d="M81 0h-16v616h16v-374l329 374h20l-290 -329l288 -287h-24l-275 275l-48 -54v-221z" />
<glyph unicode="L" horiz-adv-x="368" d="M81 616v-601h270v-15h-286v616h16z" />
<glyph unicode="M" horiz-adv-x="711" d="M626 616h20v-616h-16v594l-268 -380h-13l-268 380v-594h-16v616h20l271 -385z" />
<glyph unicode="N" horiz-adv-x="576" d="M495 616h16v-616h-22l-408 594v-594h-16v616h22l408 -597v597z" />
<glyph unicode="O" horiz-adv-x="700" d="M350 624q130 0 223 -93t93 -223q0 -131 -92.5 -223.5t-223.5 -92.5t-223.5 92.5t-92.5 223.5t92.5 223.5t223.5 92.5zM350 7q124 0 211.5 88.5t87.5 212.5t-87.5 212.5t-211.5 88.5t-211.5 -88.5t-87.5 -212.5t87.5 -212.5t211.5 -88.5z" />
<glyph unicode="P" horiz-adv-x="468" d="M251 616q82 0 140 -58t58 -141q0 -82 -58 -140t-140 -58h-170v-219h-16v616h186zM251 234q76 0 128.5 52.5t52.5 130.5q0 79 -52.5 131.5t-128.5 52.5h-170v-367h170z" />
<glyph unicode="Q" horiz-adv-x="700" d="M542 -122l8 -12q-34 -24 -78 -24q-57 0 -94.5 39.5t-37.5 97.5v13q-128 4 -217 95.5t-89 220.5q0 131 92.5 223.5t223.5 92.5q130 0 223 -93t93 -223q0 -129 -90.5 -221.5t-219.5 -94.5v-10q0 -57 35 -91t83 -34q41 0 68 21zM51 308q0 -124 87.5 -212.5t211.5 -88.5 t211.5 88.5t87.5 212.5t-87.5 212.5t-211.5 88.5t-211.5 -88.5t-87.5 -212.5z" />
<glyph unicode="R" horiz-adv-x="464" d="M218 234h33q76 0 128.5 52.5t52.5 130.5q0 79 -52.5 131.5t-128.5 52.5h-170v-601h-16v616h186q82 0 140 -58t58 -141q0 -82 -58 -140t-140 -58l181 -219h-23z" />
<glyph unicode="S" horiz-adv-x="425" d="M357 136q0 57 -34.5 97.5t-116.5 66.5q-142 44 -142 167q0 70 47 113.5t110 43.5q109 0 152 -95l-15 -8q-37 88 -138 88q-54 0 -96.5 -37.5t-42.5 -98.5t31 -98t103 -61q86 -28 122.5 -71.5t36.5 -105.5q0 -65 -47 -105t-120 -40q-101 0 -158 92l12 8q58 -85 147 -85 q66 0 107.5 36t41.5 93z" />
<glyph unicode="T" horiz-adv-x="460" d="M238 0h-16v597h-210v15h436v-15h-210v-597z" />
<glyph unicode="U" horiz-adv-x="596" d="M298 -8q-109 0 -177.5 64t-68.5 192v368h16v-368q0 -119 63 -180t167 -61t167 61t63 180v368h16v-368q0 -128 -68.5 -192t-177.5 -64z" />
<glyph unicode="V" horiz-adv-x="565" d="M290 0h-14l-254 616h19l242 -596l242 596h18z" />
<glyph unicode="W" horiz-adv-x="803" d="M763 616h18l-182 -616h-16l-179 582l-185 -582h-15l-182 616h18l172 -592l184 582h16l179 -582z" />
<glyph unicode="X" horiz-adv-x="484" d="M25 616h19l197 -296l205 296h19l-216 -309l213 -307h-20l-204 294l-201 -294h-18l211 307z" />
<glyph unicode="Y" horiz-adv-x="547" d="M506 616h19l-243 -398v-218h-16v219l-244 397h20l233 -381z" />
<glyph unicode="Z" horiz-adv-x="492" d="M55 15h404v-15h-424v15l404 582h-396v15h416v-16z" />
<glyph unicode="[" horiz-adv-x="321" d="M266 777h-133v-870h133v-11h-145v892h145v-11z" />
<glyph unicode="\" horiz-adv-x="421" d="M427 -107l-11 -5l-422 903l11 5z" />
<glyph unicode="]" horiz-adv-x="321" d="M55 777v11h145v-892h-145v11h133v870h-133z" />
<glyph unicode="^" d="M141 221l61 -113l-10 -5l-58 108l-58 -108l-10 5l61 113h14z" />
<glyph unicode="_" horiz-adv-x="500" d="M401 -32h-302v11h302v-11z" />
<glyph unicode="`" horiz-adv-x="214" d="M66 361h24l58 -86h-13z" />
<glyph unicode="a" horiz-adv-x="346" d="M265 238h16v-238h-16v23q0 33 3 46q-31 -77 -114 -77q-50 0 -84.5 33.5t-34.5 88.5q0 61 36.5 95.5t89.5 34.5q38 0 66 -20.5t41 -54.5q-3 15 -3 46v23zM265 107v22q0 41 -31 71.5t-74 30.5q-47 0 -77.5 -31.5t-30.5 -82.5q0 -49 31 -80.5t77 -31.5q42 0 73.5 31t31.5 71 z" />
<glyph unicode="b" horiz-adv-x="346" d="M81 0h-16v788h16v-575q0 -33 -3 -46q31 77 114 77q50 0 84.5 -33.5t34.5 -88.5q0 -62 -36.5 -96t-89.5 -34q-38 0 -66 20t-41 55q3 -15 3 -46v-21zM81 129v-22q0 -41 31 -71.5t74 -30.5q47 0 77.5 31t30.5 83q0 49 -31 80.5t-77 31.5q-42 0 -73.5 -31t-31.5 -71z" />
<glyph unicode="c" horiz-adv-x="289" d="M159 231q-44 0 -75.5 -31t-31.5 -80q0 -53 30.5 -84t77.5 -31t82 38l9 -9q-36 -42 -96 -42q-52 0 -86 33.5t-34 88.5q0 62 36 96t89 34q62 0 93 -41l-10 -10q-35 38 -84 38z" />
<glyph unicode="d" horiz-adv-x="346" d="M265 788h16v-788h-16v23q0 33 3 46q-31 -77 -114 -77q-50 0 -84.5 33.5t-34.5 88.5q0 61 36.5 95.5t89.5 34.5q38 0 66 -20.5t41 -54.5q-3 15 -3 46v573zM265 107v22q0 41 -31 71.5t-74 30.5q-47 0 -77.5 -31.5t-30.5 -82.5q0 -49 31 -80.5t77 -31.5q42 0 73.5 31 t31.5 71z" />
<glyph unicode="e" horiz-adv-x="303" d="M155 -8q-52 0 -86 33.5t-34 88.5q0 63 34 96.5t87 33.5q51 0 79.5 -33t28.5 -76v-15h-212q0 -53 30.5 -84t77.5 -31q51 0 87 45l9 -9q-36 -49 -101 -49zM155 231q-43 0 -70 -25.5t-32 -71.5h193q0 44 -24.5 70.5t-66.5 26.5z" />
<glyph unicode="f" horiz-adv-x="234" d="M114 528q0 124 53.5 194t142.5 70q45 0 75 -13l-4 -14q-33 13 -71 13q-79 0 -129.5 -61.5t-50.5 -185.5v-297h80v-14h-80v-172q0 -92 -24 -145t-72 -83l-8 12q48 34 68 82t20 130v176h-80v14h80v294z" />
<glyph unicode="g" horiz-adv-x="316" d="M87 18l4 10q35 4 57 25q-47 0 -77.5 24t-30.5 66q0 48 30 74.5t79 26.5q27 0 54 -10h84v-14h-66q37 -26 37 -73q0 -37 -24 -61.5t-66 -31.5q-22 -26 -60 -34q17 -17 43 -17q53 0 83 -28t30 -67q0 -42 -34.5 -69t-87.5 -27q-49 0 -83 26t-34 68q0 40 29.5 66t64.5 28 q-17 3 -32 18zM149 -10q-48 0 -77.5 -21.5t-29.5 -62.5q0 -36 29 -58.5t71 -22.5q46 0 75.5 22.5t29.5 58.5q0 35 -25.5 59.5t-72.5 24.5zM241 143q0 41 -24.5 64.5t-67.5 23.5t-67.5 -22.5t-24.5 -65.5q0 -38 26.5 -58t65.5 -20q41 0 66.5 21.5t25.5 56.5z" />
<glyph unicode="h" horiz-adv-x="349" d="M65 788h16v-670q0 -43 -5 -76q28 98 69 154q35 48 76 48q31 0 50.5 -22t19.5 -53v-169h-16v161q0 30 -15 48.5t-43 18.5q-75 0 -145 -235l-15 4q8 29 8 94v697z" />
<glyph unicode="i" horiz-adv-x="146" d="M81 0h-16v238h16v-238zM87 318q0 -14 -14 -14t-14 14t14 14t14 -14z" />
<glyph unicode="j" horiz-adv-x="149" d="M68 238h16v-190q0 -92 -24 -145t-72 -83l-8 12q48 34 68 82t20 130v194zM90 318q0 -14 -14 -14t-14 14t14 14t14 -14z" />
<glyph unicode="k" horiz-adv-x="284" d="M81 0h-16v788h16v-685l146 135h23l-129 -116l133 -122h-24l-121 112l-28 -26v-86z" />
<glyph unicode="l" horiz-adv-x="146" d="M81 0h-16v788h16v-788z" />
<glyph unicode="m" horiz-adv-x="559" d="M275 161q0 30 -15 48.5t-43 18.5q-75 0 -145 -235l-15 4q8 29 8 94v147h16v-120q0 -43 -5 -76q28 98 69 154q35 48 76 48q31 0 50.5 -22t19.5 -53v-51q0 -43 -5 -76q28 98 69 154q35 48 76 48q31 0 50.5 -22t19.5 -53v-169h-16v161q0 30 -15 48.5t-43 18.5 q-75 0 -145 -235l-15 4q8 29 8 94v70z" />
<glyph unicode="n" horiz-adv-x="349" d="M76 42q28 98 69 154q35 48 76 48q31 0 50.5 -22t19.5 -53v-169h-16v161q0 30 -15 48.5t-43 18.5q-75 0 -145 -235l-15 4q8 29 8 94v147h16v-120q0 -43 -5 -76z" />
<glyph unicode="o" horiz-adv-x="314" d="M158 244q53 0 88 -33t35 -93t-35 -93t-88 -33t-88 33t-35 93t35 93t88 33zM158 5q48 0 77 31t29 82t-29 82t-77 31t-77 -31t-29 -82t29 -82t77 -31z" />
<glyph unicode="p" horiz-adv-x="346" d="M81 -168h-16v406h16v-25q0 -33 -3 -46q31 77 114 77q50 0 84.5 -33.5t34.5 -88.5q0 -62 -36.5 -96t-89.5 -34q-38 0 -66 20t-41 55q3 -15 3 -46v-189zM81 129v-22q0 -41 31 -71.5t74 -30.5q47 0 77.5 31t30.5 83q0 49 -31 80.5t-77 31.5q-42 0 -73.5 -31t-31.5 -71z" />
<glyph unicode="q" horiz-adv-x="346" d="M265 238h16v-406h-16v191q0 33 3 46q-31 -77 -114 -77q-50 0 -84.5 33.5t-34.5 88.5q0 61 36.5 95.5t89.5 34.5q38 0 66 -20.5t41 -54.5q-3 15 -3 46v23zM265 107v22q0 41 -31 71.5t-74 30.5q-47 0 -77.5 -31.5t-30.5 -82.5q0 -49 31 -80.5t77 -31.5q42 0 73.5 31 t31.5 71z" />
<glyph unicode="r" horiz-adv-x="203" d="M81 0h-16v238h16v-38q0 -29 -4 -61q17 102 106 105l1 -18q-54 0 -78.5 -40t-24.5 -95v-91z" />
<glyph unicode="s" horiz-adv-x="224" d="M169 51q0 38 -57 54q-66 18 -66 70q0 31 22 50t54 19q37 0 61 -27l-11 -10q-20 24 -51 24q-26 0 -42.5 -15t-16.5 -38q0 -45 59 -60q64 -16 64 -66q0 -27 -22.5 -43.5t-53.5 -16.5q-39 0 -71 24l9 12q34 -23 63 -23q26 0 42.5 12.5t16.5 33.5z" />
<glyph unicode="t" horiz-adv-x="228" d="M122 0h-16v220h-80v14h80v124h16v-124h80v-14h-80v-220z" />
<glyph unicode="u" horiz-adv-x="349" d="M273 194q-28 -98 -69 -154q-36 -48 -76 -48q-31 0 -50.5 22t-19.5 53v167h16v-159q0 -30 15 -48.5t43 -18.5q74 0 145 235l15 -4q-8 -31 -8 -94v-146h-16v119q0 43 5 76z" />
<glyph unicode="v" horiz-adv-x="278" d="M148 0h-14l-104 238h19l92 -219l92 219h18z" />
<glyph unicode="w" horiz-adv-x="439" d="M395 238h17l-92 -238h-14l-85 218l-84 -218h-14l-93 238h18l83 -218l80 214h21l81 -214z" />
<glyph unicode="x" horiz-adv-x="238" d="M26 238h20l73 -107l79 107h18l-88 -118l87 -120h-20l-77 109l-78 -109h-18l87 120z" />
<glyph unicode="y" horiz-adv-x="270" d="M125 2l-103 236h19l92 -219l92 219h18l-104 -238q-38 -85 -101 -176l-13 10q72 100 100 168z" />
<glyph unicode="z" horiz-adv-x="252" d="M50 14h166v-14h-185v14l165 206h-159v14h178v-14z" />
<glyph unicode="{" horiz-adv-x="373" d="M96 336v12q79 11 78 88l-5 201q-2 78 32 117.5t116 43.5l1 -10q-75 -2 -106.5 -37.5t-29.5 -100.5l5 -208q1 -42 -20 -68t-59 -32q38 -6 59 -32t20 -68l-5 -208q-2 -65 29.5 -101t106.5 -37l-1 -10q-82 4 -116 43t-32 118l5 201q1 40 -21 61.5t-57 26.5z" />
<glyph unicode="|" horiz-adv-x="172" d="M80 -196v1000h12v-1000h-12z" />
<glyph unicode="}" horiz-adv-x="373" d="M277 336q-35 -5 -57 -26.5t-21 -61.5l5 -201q2 -79 -32 -118t-116 -43l-1 10q75 1 106.5 37t29.5 101l-5 208q-1 42 20 68t59 32q-38 6 -59 32t-20 68l5 208q2 65 -29.5 100.5t-106.5 37.5l1 10q82 -4 116 -43.5t32 -117.5l-5 -201q-1 -77 78 -88v-12z" />
<glyph unicode="~" horiz-adv-x="357" d="M174 120q-20 21 -33.5 29t-32.5 8q-38 0 -57 -50l-12 5q10 27 28.5 42.5t39.5 15.5q38 0 76 -38q37 -37 66 -37q36 0 57 50l12 -5q-10 -27 -28.5 -42.5t-39.5 -15.5q-39 0 -76 38z" />
<glyph unicode="&#xa5;" horiz-adv-x="254" d="M218 234l-72 -118h59v-11h-66l-4 -7v-23h70v-11h-70v-64h-16v64h-70v11h70v24l-4 6h-66v11h59l-72 118h18l74 -121l73 121h17z" />
<glyph unicode="&#x2018;" horiz-adv-x="84" d="M59 626l11 -3q-21 -75 -35 -163l-19 3q24 110 43 163z" />
<glyph unicode="&#x2019;" horiz-adv-x="84" d="M25 460l-11 3q21 75 35 163l19 -3q-24 -110 -43 -163z" />
<glyph unicode="&#x201c;" horiz-adv-x="134" d="M59 626l11 -3q-21 -75 -35 -163l-19 3q24 110 43 163zM109 626l11 -3q-21 -75 -35 -163l-19 3q24 110 43 163z" />
<glyph unicode="&#x201d;" horiz-adv-x="134" d="M75 460l-11 3q21 75 35 163l19 -3q-24 -110 -43 -163zM25 460l-11 3q21 75 35 163l19 -3q-24 -110 -43 -163z" />
<glyph unicode="&#xe000;" horiz-adv-x="240" d="M0 240h240v-240h-240v240z" />
<glyph horiz-adv-x="500" />
</font>
</defs>
</svg>
